<svg width="447" height="927" viewBox="0 0 447 927" fill="none" xmlns="http://www.w3.org/2000/svg">
<g clip-path="url(#clip0)">
<path d="M421.917 355.54C421.917 355.54 433.007 408.27 432.067 429.82C431.127 451.37 412.397 483.52 412.397 483.52L400.297 355.55H421.917V355.54Z" fill="#EAC2AB"/>
<path d="M355.727 258.85L358.167 304.27L393.717 317.98C393.717 317.98 372.337 286.7 375.967 258.85C379.577 231 355.727 258.85 355.727 258.85Z" fill="#D4A79A"/>
<path d="M323.957 165.92C323.957 165.92 316.217 176.18 323.767 207.63C331.317 239.09 343.577 265.95 353.057 264.05C379.267 258.81 388.467 240.29 397.557 224.39C408.697 204.89 386.577 157.33 386.577 157.33L365.677 146.05L323.957 165.92Z" fill="#EAC2AB"/>
<path d="M296.047 157.45C293.757 150.07 297.777 140.63 303.147 136.07C305.217 134.31 307.827 133.19 310.437 133.45C312.397 133.64 314.317 134.59 316.267 134.27C322.107 133.3 322.807 124.69 328.227 122.94C332.267 121.64 336.147 125.3 340.267 126.27C343.377 127 346.597 126.16 349.727 125.51C358.537 123.66 366.707 119.43 375.737 118.34C383.357 117.42 391.307 118.28 398.197 121.98C405.397 125.84 410.557 132.94 413.307 141.14C414.947 146.04 415.477 151.5 414.157 156.52C415.237 152.39 422.667 156.83 423.877 158.45C428.597 164.83 429.407 178.66 426.897 186.08C424.907 191.96 421.637 197.16 419.817 203.12C417.657 210.23 416.757 218.12 412.817 224.42C408.307 231.65 384.017 255.38 376.307 253.38C378.687 246.84 367.087 240.9 367.517 233.87C367.947 226.84 372.337 190.25 337.757 183.4C324.007 180.68 341.647 176.22 327.877 176.77C321.337 177.03 314.787 175.76 308.657 173.27C303.917 171.35 299.307 164.28 296.697 159.11C296.437 158.57 296.227 158.02 296.047 157.45Z" fill="#4B369D"/>
<path d="M365.357 204.87C365.357 204.87 379.727 192.56 378.677 209.21C377.627 225.86 364.177 230.69 364.177 230.69L365.357 204.87Z" fill="#EAC2AB"/>
<path d="M403.777 833.79L394.937 893.75L414.677 898.77L420.187 835.66C420.177 835.66 409.797 831.37 403.777 833.79Z" fill="#D4A79A"/>
<path d="M317.557 922.56C317.557 922.56 332.337 926.48 360.157 926.59C387.977 926.7 418.927 925.56 424.247 921.06C429.577 916.56 430.737 881.39 421.507 882.04C412.277 882.69 409.627 896.29 392.537 885.52C377.887 876.29 368.107 896.31 344.207 903.15C320.307 909.99 310.627 912.73 317.557 922.56Z" fill="#F3AA02"/>
<path d="M354.587 852.28C355.347 849.86 357.657 847.91 359.637 845.93C377.777 827.76 371.267 802.46 366.597 780.27C355.537 727.63 359.627 673.51 358.827 620.14C358.047 568.05 349.627 516.31 335.217 466.5C329.987 448.4 322.537 420.37 348.967 423.92C361.487 425.6 373.627 424.25 385.767 421.03C392.157 419.34 385.387 417.5 392.157 419.34C415.207 425.6 428.387 492.01 424.897 508.5C417.957 541.33 415.607 551.84 416.507 586.03C417.787 634.52 413.807 683.43 422.427 731.02C426.657 754.34 431.287 777.58 435.807 800.83C438.447 814.39 451.027 843.65 444.867 856.52C436.407 874.2 392.367 862.81 377.967 863.43C367.157 863.91 351.997 860.53 354.587 852.28Z" fill="#4B369D"/>
<path d="M359.057 835.86L346.047 895.05L365.387 901.43L375.297 838.86C375.297 838.87 365.237 833.87 359.057 835.86Z" fill="#EAC2AB"/>
<path d="M266.847 918.38C266.847 918.38 281.317 923.32 309.057 925.38C336.797 927.44 367.757 928.47 373.377 924.35C379.007 920.23 382.627 885.24 373.377 885.24C364.127 885.24 360.537 898.62 344.227 886.68C330.257 876.45 319.097 895.74 294.777 900.88C270.467 906.02 260.617 908.08 266.847 918.38Z" fill="#FDC510"/>
<path d="M308.697 852.44C309.627 850.27 312.067 848.65 314.187 846.96C333.557 831.52 328.827 807.97 325.727 787.39C318.377 738.57 326.247 689.36 329.187 640.53C332.047 592.87 327.277 545.04 316.387 498.58C312.427 481.7 306.967 455.6 333.077 460.54C345.447 462.88 357.657 462.42 369.987 460.26C376.477 459.12 369.857 457.01 376.477 459.12C399.027 466.32 407.797 490.37 403.167 505.21C393.947 534.78 390.597 581.73 389.107 613.04C386.987 657.44 379.597 701.89 384.867 745.95C387.447 767.54 390.447 789.07 393.327 810.62C395.007 823.19 405.517 850.73 398.467 862.11C388.787 877.73 345.657 864.49 331.247 864.14C320.427 863.87 305.547 859.81 308.697 852.44Z" fill="#5A54FF"/>
<path d="M283.537 345.82C274.197 352.88 264.257 359.13 253.857 364.5C245.767 368.67 223.827 382.74 215.327 374.13C212.847 371.61 211.767 368.06 210.877 364.64C205.607 344.45 197.957 324.99 190.477 305.54C183.787 288.17 175.757 269.85 176.377 250.85C177.017 231.45 175.857 205.28 174.007 200.53C172.157 195.78 156.987 167.82 156.707 176.52C156.427 185.22 171.047 209.14 164.377 208.25C157.707 207.36 143.457 212.92 145.137 223.03C146.817 233.13 157.487 254.92 157.487 254.92C162.157 274.55 167.077 294.14 172.187 313.66C176.007 328.26 179.927 342.86 184.297 357.31C188.547 371.36 192.487 386.61 204.847 395.93C206.457 397.15 208.167 398.23 209.987 399.1C224.627 406.1 241.837 398.77 256.077 390.99C286.627 374.3 315.587 355.04 344.767 336.11C339.057 330.5 333.347 324.9 327.647 319.29C326.277 317.95 324.777 316.53 322.887 316.25C320.677 315.91 318.567 317.19 316.737 318.48C307.627 324.87 299.657 332.7 291.107 339.83C288.627 341.88 286.097 343.88 283.537 345.82Z" fill="#EAC2AB"/>
<path d="M382.707 361.37C382.707 361.37 352.677 310.98 375.597 301.56C398.517 292.14 421.917 355.55 421.917 355.55L384.187 370.43L382.707 361.37Z" fill="#F44E4E"/>
<path d="M313.297 470.64C313.297 468.56 309.827 414.44 317.457 379.75C325.087 345.06 317.457 315.22 343.827 294.41C370.197 273.6 391.697 301.35 398.637 315.92C405.577 330.49 411.397 376.75 412.377 401.26C413.377 426.31 426.547 479.24 427.077 480.36C437.537 502.11 430.657 500.51 429.747 502.58C424.097 515.46 387.347 517.96 378.517 513.4C359.157 503.4 355.047 497.96 334.177 501.17C325.157 502.56 315.187 499.78 312.507 497.01C309.827 494.24 313.297 470.64 313.297 470.64Z" fill="#D7384E"/>
<path d="M298.587 322.23C298.587 322.23 347.297 270.3 365.967 293.87C384.647 317.44 318.527 366.01 318.527 366.01L288.517 326.99L298.587 322.23Z" fill="#F44E4E"/>
<path d="M277.584 177.166C261.63 172.564 247.356 163.389 231.601 158.158C211.088 151.384 189.008 151.613 167.412 151.899C128.523 152.413 89.6623 152.956 50.7731 153.471C39.8899 153.614 27.5821 153.156 20.3455 145.039C15.6162 139.722 14.2201 132.291 13.0235 125.259C9.26282 103.365 5.50212 81.4991 1.76989 59.6047C-0.224425 48.0001 -1.93385 34.9949 4.87532 25.3911C12.5107 14.6153 27.4396 12.7575 40.5736 11.8428C96.5 7.98414 152.398 4.09687 208.324 0.238194C213.595 -0.133383 219.236 -0.419204 223.823 2.21041C228.04 4.63995 230.632 9.12745 232.854 13.472C242.228 31.7936 249.008 51.43 252.94 71.638C255.761 86.1581 257.242 101.364 264.308 114.341C275.333 134.549 268.809 135.463 279.265 153.328C294.45 179.309 293.197 181.682 277.584 177.166Z" fill="#E3E5FC"/>
<path d="M92.8184 118H176.182C197.517 118 215 111.81 215 104.257V74.7432C215 67.1898 197.517 61 176.182 61H92.8184C71.4835 61 54 67.1898 54 74.7432V104.257C54 111.81 71.4835 118 92.8184 118Z" fill="white"/>
<path d="M80.3286 93.1014H84.8246C89.9501 93.1014 94.1584 88.9111 94.1584 83.7677V79.2717C94.1584 74.1462 89.9681 69.938 84.8246 69.938H80.3286C75.2032 69.938 70.9949 74.1283 70.9949 79.2717V83.7677C70.9949 88.9111 75.2032 93.1014 80.3286 93.1014Z" fill="#4B369D"/>
<path d="M82.5766 93.2642C90.9212 93.2642 97.7552 100.098 97.7552 108.443H67.4161C67.3981 100.098 74.2321 93.2642 82.5766 93.2642Z" fill="#4B369D"/>
</g>
<defs>
<clipPath id="clip0">
<rect width="447" height="927" fill="white"/>
</clipPath>
</defs>
</svg>
