<svg width="290" height="179" viewBox="0 0 290 179" fill="none" xmlns="http://www.w3.org/2000/svg">
<path d="M277.584 177.166C261.63 172.564 247.356 163.389 231.601 158.158C211.088 151.384 189.008 151.613 167.412 151.899C128.523 152.413 89.6623 152.956 50.7731 153.471C39.8899 153.614 27.5821 153.156 20.3455 145.039C15.6162 139.722 14.2201 132.291 13.0235 125.259C9.26282 103.365 5.50212 81.4991 1.76989 59.6047C-0.224425 48.0001 -1.93385 34.9949 4.87532 25.3911C12.5107 14.6153 27.4396 12.7575 40.5736 11.8428C96.5 7.98414 152.398 4.09687 208.324 0.238194C213.595 -0.133383 219.236 -0.419204 223.823 2.21041C228.04 4.63995 230.632 9.12745 232.854 13.472C242.228 31.7936 249.008 51.43 252.94 71.638C255.761 86.1581 257.242 101.364 264.308 114.341C275.333 134.549 268.809 135.463 279.265 153.328C294.45 179.309 293.197 181.682 277.584 177.166Z" fill="#E3E5FC"/>
<path d="M92.8184 118H176.182C197.517 118 215 111.81 215 104.257V74.7432C215 67.1898 197.517 61 176.182 61H92.8184C71.4835 61 54 67.1898 54 74.7432V104.257C54 111.81 71.4835 118 92.8184 118Z" fill="white"/>
<path d="M80.3286 93.1014H84.8246C89.9501 93.1014 94.1584 88.9111 94.1584 83.7677V79.2717C94.1584 74.1462 89.9681 69.938 84.8246 69.938H80.3286C75.2032 69.938 70.9949 74.1283 70.9949 79.2717V83.7677C70.9949 88.9111 75.2032 93.1014 80.3286 93.1014Z" fill="#4B369D"/>
<path d="M82.5766 93.2642C90.9212 93.2642 97.7552 100.098 97.7552 108.443H67.4161C67.3981 100.098 74.2321 93.2642 82.5766 93.2642Z" fill="#4B369D"/>
</svg>
